PathFileType	4	(X/Y/Z)	C:/Users/opensim2020/Desktop/walking_exp_matlab/subject03_walking04_straight_02.trc																																																																																																																																																							
DataRate	CameraRate	NumFrames	NumMarkers	Units	OrigDataRate	OrigDataStartFrame	OrigNumFrames																																																																																																																																																			
100	100	4	51	mm	100	1540	259																																																																																																																																																			
Frame#	Time	LFHD			RFHD			LBHD			RBHD			C7			T10			CLAV			STRN			RBAK			LSHO			LUPA			LELB			LFRM			LWRA			LWRB			LFIN			RSHO			RUPA			RELB			RFRM			RWRA			RWRB			RFIN			LASI			RASI			LPSI			RPSI			LTHI			LKNE			LTIB			LANK			LHEE			LTOE			RTHI			RKNE			RTIB			RANK			RHEE			RTOE			*39			*40			*41			*42			*43			*44			*45			*46			*47			*48			*49			*50		
		X1	Y1	Z1	X2	Y2	Z2	X3	Y3	Z3	X4	Y4	Z4	X5	Y5	Z5	X6	Y6	Z6	X7	Y7	Z7	X8	Y8	Z8	X9	Y9	Z9	X10	Y10	Z10	X11	Y11	Z11	X12	Y12	Z12	X13	Y13	Z13	X14	Y14	Z14	X15	Y15	Z15	X16	Y16	Z16	X17	Y17	Z17	X18	Y18	Z18	X19	Y19	Z19	X20	Y20	Z20	X21	Y21	Z21	X22	Y22	Z22	X23	Y23	Z23	X24	Y24	Z24	X25	Y25	Z25	X26	Y26	Z26	X27	Y27	Z27	X28	Y28	Z28	X29	Y29	Z29	X30	Y30	Z30	X31	Y31	Z31	X32	Y32	Z32	X33	Y33	Z33	X34	Y34	Z34	X35	Y35	Z35	X36	Y36	Z36	X37	Y37	Z37	X38	Y38	Z38	X39	Y39	Z39	X40	Y40	Z40	X41	Y41	Z41	X42	Y42	Z42	X43	Y43	Z43	X44	Y44	Z44	X45	Y45	Z45	X46	Y46	Z46	X47	Y47	Z47	X48	Y48	Z48	X49	Y49	Z49	X50	Y50	Z50	X51	Y51	Z51
																																																																																																																																																										
1	0	-1467.50305	1613.80859	-1601.17114	-1486.09082	1620.04065	-1469.21887	-1594.41833	1566.86743	-1612.88538	-1607.93774	1573.32129	-1482.83435	-1631.48193	1413.16638	-1555.80225	-1668.25159	1099.81665	-1551.39246	-1509.75793	1336.81238	-1543.62244	-1468.53918	1171.01575	-1550.57043	-1694.00818	1237.94104	-1464.59192	-1539.54822	1376.77234	-1700.59705	-1501.32947	1195.57373	-1786.30212	-1453.72205	1085.38171	-1807.48596	-1369.17896	988.11877	-1801.38232	-1295.03345	899.03827	-1764.74329	-1312.18237	890.45313	-1816.2041	-1251.38989	834.78656	-1804.60962	-1571.19812	1359.63391	-1388.59741	-1589.14844	1136.8999	-1318.9519	-1581.14136	1023.8028	-1307.31775	-1571.50342	887.08667	-1308.14038	-1545.76819	791.30969	-1345.47144	-1577.96838	786.59497	-1302.37158	-1560.08984	714.6875	-1314.48267	-1506.59875	939.13251	-1674.81616	-1497.63794	932.85797	-1435.3938	-1665.255	963.27588	-1614.87231	-1659.81909	959.89502	-1467.86438	-1597.25244	641.57507	-1703.8584	-1624.86157	466.05951	-1663.77356	-1710.0708	287.66562	-1662.27026	-1763.10901	83.50343	-1618.02283	-1804.96411	52.20506	-1578.42297	-1612.43372	34.78779	-1599.98413	-1478.23975	639.86877	-1399.40405	-1399.98303	481.16702	-1449.20117	-1405.13257	292.39795	-1448.98071	-1395.92004	77.75974	-1498.70178	-1440.31348	41.95267	-1548.32202	-1259.48096	51.64975	-1530.85901	-1556.93298	1674.57898	-1562.96924	NaN	NaN	NaN	NaN	NaN	NaN	NaN	NaN	NaN	NaN	NaN	NaN	NaN	NaN	NaN	NaN	NaN	NaN	NaN	NaN	NaN	NaN	NaN	NaN	NaN	NaN	NaN	NaN	NaN	NaN	NaN	NaN	NaN
2	0.01	-1458.26514	1612.64319	-1601.59583	-1476.93323	1618.69788	-1469.74963	-1585.01929	1565.30554	-1613.62634	-1598.65881	1571.46899	-1483.45251	-1621.95386	1411.93811	-1556.6355	-1659.41785	1098.62158	-1551.73193	-1500.15552	1335.39734	-1544.42358	-1459.55859	1169.65625	-1551.44263	-1684.70569	1236.91479	-1465.28638	-1529.77148	1375.2262	-1701.35132	-1491.86206	1193.927	-1786.88904	-1444.65869	1083.50879	-1807.97729	-1359.40674	987.27252	-1800.8739	-1284.68445	899.31714	-1762.93677	-1301.19824	890.16638	-1814.55017	-1239.66663	835.56714	-1802.0553	-1561.55408	1358.33472	-1389.27258	-1580.01538	1135.58313	-1319.93738	-1572.40955	1022.45319	-1308.4054	-1562.84717	885.71216	-1309.54785	-1537.15112	789.93958	-1347.19983	-1569.38501	785.19934	-1303.94849	-1551.58508	713.34967	-1316.43298	-1498.40149	937.87531	-1675.58679	-1488.70911	931.38049	-1436.11401	-1656.78308	962.02301	-1615.18079	-1650.95544	958.57086	-1468.16394	-1590.74072	640.62219	-1704.40149	-1619.89832	465.39438	-1664.58081	-1707.24219	287.61429	-1662.38843	-1762.51062	84.15195	-1618.22925	-1804.82922	53.27871	-1578.73804	-1612.38306	34.74754	-1600.04761	-1471.67126	637.7373	-1399.53015	-1393.35962	479.28561	-1450.6449	-1391.47461	291.27206	-1450.74048	-1371.50964	77.08068	-1500.96533	-1414.01038	41.02492	-1551.50842	-1233.41492	53.94104	-1531.92944	-1547.97949	1673.16248	-1563.37805	NaN	NaN	NaN	NaN	NaN	NaN	NaN	NaN	NaN	NaN	NaN	NaN	NaN	NaN	NaN	NaN	NaN	NaN	NaN	NaN	NaN	NaN	NaN	NaN	NaN	NaN	NaN	NaN	NaN	NaN	NaN	NaN	NaN
3	0.02	-1448.89685	1611.52808	-1601.91333	-1467.92346	1617.32275	-1470.06299	-1575.45667	1563.72083	-1614.24707	-1589.48914	1569.73425	-1484.20544	-1612.16467	1410.65356	-1557.26636	-1650.59827	1097.50244	-1552.05273	-1490.44812	1333.98645	-1545.17529	-1450.21753	1167.90381	-1552.17395	-1675.18323	1235.77209	-1465.75867	-1520.02087	1373.56567	-1701.97205	-1482.50818	1192.24231	-1787.41187	-1435.78955	1081.81543	-1808.57813	-1349.83704	986.1734	-1800.29602	-1274.67505	899.25354	-1761.17358	-1290.65576	889.62396	-1812.87598	-1228.55737	836.02478	-1799.55969	-1551.67529	1357.05981	-1389.88831	-1570.82861	1134.3219	-1320.69165	-1563.34021	1021.0769	-1309.42639	-1553.99048	884.3045	-1310.88721	-1528.3905	788.49585	-1348.87195	-1560.58008	783.91669	-1305.60522	-1542.81042	712.03137	-1318.29785	-1489.84937	936.40393	-1676.25891	-1479.56152	929.78943	-1436.78857	-1648.19019	960.6944	-1615.42847	-1641.90588	957.24316	-1468.40063	-1584.25708	639.7196	-1705.13464	-1614.66809	464.6413	-1665.34314	-1704.09082	287.79959	-1662.90454	-1760.89233	83.76136	-1617.55408	-1804.65662	54.55701	-1579.13477	-1612.34192	34.62743	-1600.01099	-1464.97339	635.55359	-1399.64917	-1386.85938	477.3606	-1451.79785	-1378.71973	290.30283	-1452.27136	-1348.86682	77.26822	-1503.06006	-1389.21936	40.71912	-1554.81201	-1208.86865	56.89136	-1532.49622	-1538.95276	1671.59961	-1563.81592	NaN	NaN	NaN	NaN	NaN	NaN	NaN	NaN	NaN	NaN	NaN	NaN	NaN	NaN	NaN	NaN	NaN	NaN	NaN	NaN	NaN	NaN	NaN	NaN	NaN	NaN	NaN	NaN	NaN	NaN	NaN	NaN	NaN
4	0.03	-1439.51379	1610.50769	-1602.21948	-1458.71863	1615.94666	-1470.42114	-1565.83044	1562.17566	-1614.81372	-1580.01697	1567.90234	-1484.75012	-1602.30969	1409.42371	-1557.83008	-1641.48596	1096.34216	-1552.11743	-1480.62476	1332.48718	-1545.74927	-1440.80481	1166.3252	-1552.927	-1665.49902	1234.68872	-1466.15747	-1510.24475	1371.9613	-1702.62891	-1473.28101	1190.50366	-1787.83081	-1426.94238	1079.80078	-1808.78638	-1340.59961	984.91986	-1799.61462	-1265.0271	898.91766	-1759.38928	-1280.57434	888.76886	-1811.13354	-1217.97473	836.00183	-1797.02234	-1541.60449	1355.73792	-1390.3811	-1561.46826	1133.01721	-1321.42175	-1554.26563	1019.69604	-1310.37988	-1545.08643	883.02087	-1312.16199	-1519.48315	787.36255	-1350.36768	-1551.60046	782.48657	-1307.1626	-1533.91467	710.66327	-1320.07849	-1481.35974	935.08807	-1677.00793	-1470.14636	928.22089	-1437.54004	-1639.46204	959.25812	-1615.60693	-1632.74927	955.88452	-1468.59729	-1577.73108	639.0426	-1705.92651	-1609.25745	463.91187	-1666.1637	-1700.7948	287.97144	-1663.38013	-1760.07251	84.45586	-1617.69983	-1804.40723	55.91915	-1579.4967	-1612.28589	34.64174	-1600.14404	-1458.2041	633.4762	-1399.80774	-1380.24414	475.09976	-1452.71301	-1366.89697	289.27591	-1453.62354	-1327.72302	77.47182	-1505.12891	-1366.07007	40.80983	-1557.84595	-1186.08386	60.33519	-1532.92493	-1529.97107	1669.94116	-1564.15857	NaN	NaN	NaN	NaN	NaN	NaN	NaN	NaN	NaN	NaN	NaN	NaN	NaN	NaN	NaN	NaN	NaN	NaN	NaN	NaN	NaN	NaN	NaN	NaN	NaN	NaN	NaN	NaN	NaN	NaN	NaN	NaN	NaN
